<svg xmlns="http://www.w3.org/2000/svg" viewBox="0 0 512 432.5"><defs><style>.cls-1{fill:#fff;}</style></defs><g id="レイヤー_2" data-name="レイヤー 2"><g id="_2" data-name="2"><path class="cls-1" d="M243.59,269.61c3.27,4.32,7.68,6.69,12.41,6.69s9.14-2.37,12.41-6.69L358,151.52c3.35-4.41,4.28-8.69,2.61-12s-5.63-5.2-11.16-5.2H315.14a16.85,16.85,0,0,1-16.84-16.84V20a20.06,20.06,0,0,0-20-20H233.73a20.06,20.06,0,0,0-20,20v97.41a16.85,16.85,0,0,1-16.84,16.84h-34.3c-5.54,0-9.51,1.85-11.17,5.2s-.74,7.63,2.61,12.05Z"/><path class="cls-1" d="M445.22,254.41v111.3H66.78V254.41H0V407.06A25.47,25.47,0,0,0,25.44,432.5H486.56A25.47,25.47,0,0,0,512,407.06V254.41Z"/></g></g></svg>