<svg xmlns="http://www.w3.org/2000/svg" viewBox="0 0 512 512"><defs><style>.cls-1{fill:#fff;}</style></defs><g id="レイヤー_2" data-name="レイヤー 2"><g id="_2" data-name="2"><path class="cls-1" d="M0,0V512H512V0ZM163.15,120.06A52.11,52.11,0,1,1,111,172.17,52.11,52.11,0,0,1,163.15,120.06ZM454.42,386.52a10.29,10.29,0,0,1-9.05,5.42H66.63A10.28,10.28,0,0,1,58,376l66.25-100.94A25.68,25.68,0,0,1,165,272.19L210.72,324l82.79-126a25.68,25.68,0,0,1,42.91,0L454,376A10.29,10.29,0,0,1,454.42,386.52Z"/></g></g></svg>