<svg xmlns="http://www.w3.org/2000/svg" viewBox="0 0 87.19 17.08"><defs><style>.cls-1{fill:#fff;}</style></defs><g id="レイヤー_2" data-name="レイヤー 2"><g id="レイヤー_1-2" data-name="レイヤー 1"><path class="cls-1" d="M1.93,12.06H0V10H2.2L2.59,7.1H.67V5h2.2L3.51.41H5.74L5.1,5H7.37L8,.41h2.23L9.6,5h1.93V7.1H9.32L8.93,10h1.93v2.07H8.66L8,16.67H5.79l.64-4.61H4.16l-.65,4.61H1.29Zm5.17-5H4.82L4.43,10H6.71Z"/><path class="cls-1" d="M13.34,8.54A9.06,9.06,0,0,1,14,5a7.62,7.62,0,0,1,1.82-2.7A8.12,8.12,0,0,1,18.6.6a10.6,10.6,0,0,1,7,0A8.08,8.08,0,0,1,28.4,2.31,7.78,7.78,0,0,1,30.23,5a9.06,9.06,0,0,1,.65,3.53,9.15,9.15,0,0,1-.65,3.54,8,8,0,0,1-1.83,2.7,8.08,8.08,0,0,1-2.77,1.71,10.28,10.28,0,0,1-3.52.59,10.18,10.18,0,0,1-3.51-.59,8.12,8.12,0,0,1-2.78-1.71A7.8,7.8,0,0,1,14,12.08,9.15,9.15,0,0,1,13.34,8.54Zm3.72,0a5.86,5.86,0,0,0,.36,2.1,4.63,4.63,0,0,0,1,1.66A4.69,4.69,0,0,0,20,13.39a5.74,5.74,0,0,0,4.16,0,4.84,4.84,0,0,0,1.6-1.09,4.93,4.93,0,0,0,1-1.66,5.86,5.86,0,0,0,.35-2.1,6,6,0,0,0-.35-2.09,4.83,4.83,0,0,0-1-1.66,4.69,4.69,0,0,0-1.6-1.09A5.74,5.74,0,0,0,20,3.7a4.66,4.66,0,0,0-2.61,2.75A6,6,0,0,0,17.06,8.54Z"/><path class="cls-1" d="M33.27.41h3.58V16.67H33.27Z"/><path class="cls-1" d="M40.11.41h5.42L49.28,11h0L53.09.41h5.39V16.67H54.9V4.2h0L50.58,16.67H47.85L43.74,4.2h0V16.67H40.11Z"/><path class="cls-1" d="M65.78,9.74,59.68.41h4.45L67.58,6.5,71.23.41h4.25L69.37,9.74v6.93H65.78Z"/><path class="cls-1" d="M84.71,4.39a2.63,2.63,0,0,0-1.19-.82,4.1,4.1,0,0,0-1.41-.26,3.7,3.7,0,0,0-.8.09,2.92,2.92,0,0,0-.78.29,1.67,1.67,0,0,0-.6.51A1.35,1.35,0,0,0,79.7,5a1.3,1.3,0,0,0,.55,1.13,5.14,5.14,0,0,0,1.39.66c.56.19,1.16.37,1.8.55a7.53,7.53,0,0,1,1.81.79,4.14,4.14,0,0,1,1.38,1.35,4.1,4.1,0,0,1,.56,2.27,5.18,5.18,0,0,1-.51,2.37,4.75,4.75,0,0,1-1.37,1.67,5.63,5.63,0,0,1-2,1,8.59,8.59,0,0,1-2.4.32A8.72,8.72,0,0,1,78,16.6,7.28,7.28,0,0,1,75.45,15L78,12.24a3.76,3.76,0,0,0,1.39,1.14,4.09,4.09,0,0,0,1.73.4,3.94,3.94,0,0,0,.89-.11,2.84,2.84,0,0,0,.8-.31,1.71,1.71,0,0,0,.58-.52,1.38,1.38,0,0,0,.21-.76A1.36,1.36,0,0,0,83,10.92a5,5,0,0,0-1.41-.72c-.57-.2-1.18-.4-1.84-.6A8.23,8.23,0,0,1,78,8.79a4.47,4.47,0,0,1-1.41-1.33A3.85,3.85,0,0,1,76,5.28,4.85,4.85,0,0,1,76.5,3a5.09,5.09,0,0,1,1.37-1.65,6.31,6.31,0,0,1,2-1A8.18,8.18,0,0,1,82.18,0a9.06,9.06,0,0,1,2.66.39A6.17,6.17,0,0,1,87.16,1.7Z"/></g></g></svg>