<svg xmlns="http://www.w3.org/2000/svg" viewBox="0 0 496.31 512"><defs><style>.cls-1{fill:#fff;}</style></defs><g id="レイヤー_2" data-name="レイヤー 2"><g id="_2" data-name="2"><path class="cls-1" d="M468.89,130Z"/><path class="cls-1" d="M468.89,130c.35.77,2.14,4.79,6.38,14.32C484.85,165.78,469.89,132.19,468.89,130Z"/><path class="cls-1" d="M475.27,144.28C385.64-56.94,93.71-43.77,16.62,159.33-63.25,369.76,159.68,598,366.79,479.52c-3.75-7.08-14.08-35.55-21-37.9-34.83,19.91-75.28,27.24-115.27,23.87-80.69-6.8-148-64.16-174.16-140.07C-.19,161.37,158.06-12.41,325.62,57,399.18,87.46,452.29,159.78,452.29,240.4c0,29.85-6.12,66-29.8,86.92-20,17.76-56.15,14.19-67-11.74-12.53-30.23.82-75.08,5.77-106.57q4.53-28.87,9.08-57.75c.47-3-37.12-7.7-42.64-8.64q-.9,5.72-1.81,11.44C238.3,90.69,128.28,176,128.28,272.28S257.42,420.35,321.16,344.5c30.21,51.08,103.91,49.27,140.25,6.11C508,295.31,503,206.58,475.27,144.28ZM290.62,312.13C235.48,386.55,130,287.4,192.75,210.81c25.05-30.55,73.81-44.15,107.86-20.05C330.68,212,308.42,288,290.62,312.13Z"/></g></g></svg>